<svg version="1.1" xmlns="http://www.w3.org/2000/svg" viewBox="0 0 1427.1494548018677 961.0371722747042" width="2854.2989096037354" height="1922.0743445494084" filter="invert(93%) hue-rotate(180deg)">
  <!-- svg-source:excalidraw -->
  
  <defs>
    <style class="style-fonts">
      @font-face {
        font-family: "Virgil";
        src: url("https://excalidraw.com/Virgil.woff2");
      }
      @font-face {
        font-family: "Cascadia";
        src: url("https://excalidraw.com/Cascadia.woff2");
      }
      @font-face {
        font-family: "Assistant";
        src: url("https://excalidraw.com/Assistant-Regular.woff2");
      }
    </style>
    
  </defs>
  <rect x="0" y="0" width="1427.1494548018677" height="961.0371722747042" fill="#ffffff"></rect><g stroke-linecap="round" transform="translate(25.888005126555868 10) rotate(0 174 91)"><path d="M32 0 C111.25 -0.7, 192.47 -0.94, 316 0 M32 0 C109.71 -0.03, 185.83 0.59, 316 0 M316 0 C335.62 1.48, 346.34 9.56, 348 32 M316 0 C337.33 -1.7, 346.83 9.13, 348 32 M348 32 C347.69 68.39, 348.46 107.04, 348 150 M348 32 C346.56 75.67, 347.21 119.56, 348 150 M348 150 C348.71 172.14, 337.92 181.69, 316 182 M348 150 C346.23 171.76, 339.52 182.5, 316 182 M316 182 C228.47 178.61, 144.78 180.88, 32 182 M316 182 C206.14 182.09, 98.35 182.4, 32 182 M32 182 C9.25 181.74, -1.76 171.67, 0 150 M32 182 C9.69 181.02, 0.94 173.63, 0 150 M0 150 C-0.92 122.39, 2.43 94.81, 0 32 M0 150 C0.23 114.95, -0.77 81.76, 0 32 M0 32 C-0.28 8.81, 10.82 -0.45, 32 0 M0 32 C-1.55 11.56, 11.51 -1.41, 32 0" stroke="#2f9e44" stroke-width="2" fill="none"></path></g><g transform="translate(136.61527716024727 79.4) rotate(0 63.272727966308594 21.599999999999994)"><text x="63.272727966308594" y="34.762499999999996" font-family="Cascadia, Segoe UI Emoji" font-size="36px" fill="#2f9e44" text-anchor="middle" style="white-space: pre;" direction="ltr" dominant-baseline="alphabetic">Client</text></g><g stroke-linecap="round" transform="translate(27.332449570998506 314.4067413128405) rotate(0 694.9085026154346 318.31521548093184)"><path d="M32 0 C435.2 0.28, 838.87 1.24, 1357.82 0 M32 0 C432.1 -4.1, 832.56 -4.62, 1357.82 0 M1357.82 0 C1379.15 -1.48, 1388.8 9.33, 1389.82 32 M1357.82 0 C1379.57 1.99, 1388.84 9.14, 1389.82 32 M1389.82 32 C1389.73 169.29, 1389.08 307.36, 1389.82 604.63 M1389.82 32 C1390.2 206.6, 1390.18 380.82, 1389.82 604.63 M1389.82 604.63 C1388.27 626.33, 1381.05 637.06, 1357.82 636.63 M1389.82 604.63 C1389.89 626.4, 1377.05 634.43, 1357.82 636.63 M1357.82 636.63 C1083.89 639.61, 808.64 638.88, 32 636.63 M1357.82 636.63 C956.97 638.86, 556.33 638.97, 32 636.63 M32 636.63 C9.81 635.78, 0.82 627.96, 0 604.63 M32 636.63 C8.95 634.82, -0.27 623.83, 0 604.63 M0 604.63 C-1.77 462.11, -2.48 319.57, 0 32 M0 604.63 C0.87 461.87, 0.96 319.77, 0 32 M0 32 C-1.34 11.44, 11.4 -1.22, 32 0 M0 32 C-0.21 11.9, 10.46 0.21, 32 0" stroke="#1971c2" stroke-width="2" fill="none"></path></g><g transform="translate(487.3324495709986 260.08333333333394) rotate(0 73.81818389892578 21.599999999999994)"><text x="0" y="34.762499999999996" font-family="Cascadia, Segoe UI Emoji" font-size="36px" fill="#1971c2" text-anchor="start" style="white-space: pre;" direction="ltr" dominant-baseline="alphabetic">Backend</text></g><g stroke-linecap="round" transform="translate(88.4435606821097 370.08333333333394) rotate(0 144.44444444444446 88.88888888888891)"><path d="M32 0 C89.64 -2.41, 148.63 -2.95, 256.89 0 M32 0 C116.09 0.43, 199.75 0.5, 256.89 0 M256.89 0 C278.59 1.73, 288.04 9.34, 288.89 32 M256.89 0 C276.86 -0.65, 288.75 12.27, 288.89 32 M288.89 32 C288.85 57.69, 289.38 83.66, 288.89 145.78 M288.89 32 C288.45 70.93, 290.18 109.7, 288.89 145.78 M288.89 145.78 C288.95 167.49, 276.39 175.86, 256.89 177.78 M288.89 145.78 C286.75 168.52, 279.51 179.72, 256.89 177.78 M256.89 177.78 C189.01 177.6, 121.79 174.82, 32 177.78 M256.89 177.78 C191.99 177.73, 128.17 178.96, 32 177.78 M32 177.78 C9.17 176.2, -0.24 165.26, 0 145.78 M32 177.78 C9.5 179.5, -2.29 166.94, 0 145.78 M0 145.78 C0.06 107.27, 2.77 70.11, 0 32 M0 145.78 C-0.76 122.61, 0.28 98.05, 0 32 M0 32 C-0.19 11.74, 10.49 0.18, 32 0 M0 32 C-0.32 8.39, 10.76 0.44, 32 0" stroke="#e03131" stroke-width="2" fill="none"></path></g><g transform="translate(116.88800512655416 437.37222222222283) rotate(0 116 21.60000000000001)"><text x="116" y="34.762499999999996" font-family="Cascadia, Segoe UI Emoji" font-size="36px" fill="#e03131" text-anchor="middle" style="white-space: pre;" direction="ltr" dominant-baseline="alphabetic">HTTP server</text></g><g stroke-linecap="round" transform="translate(549.7984901298025 732.5681208741762) rotate(0 144.44444444444446 88.88888888888891)"><path d="M32 0 C88.56 0.23, 141.63 1.65, 256.89 0 M32 0 C83 2.03, 133.33 0.72, 256.89 0 M256.89 0 C277.04 -0.56, 288.77 12.06, 288.89 32 M256.89 0 C276.47 -0.27, 287.64 10.77, 288.89 32 M288.89 32 C290.06 67.92, 288.94 101.12, 288.89 145.78 M288.89 32 C290 68.43, 289.06 103.53, 288.89 145.78 M288.89 145.78 C287.03 168.33, 279.34 179.47, 256.89 177.78 M288.89 145.78 C288.94 167.19, 276.15 177.83, 256.89 177.78 M256.89 177.78 C168.8 174.9, 81.45 175.68, 32 177.78 M256.89 177.78 C198.35 179.03, 140.98 178.91, 32 177.78 M32 177.78 C9.65 179.28, -1.99 166.96, 0 145.78 M32 177.78 C11.39 175.57, 1.38 165.93, 0 145.78 M0 145.78 C-2.81 116.41, -1.4 85.39, 0 32 M0 145.78 C-0.51 107.77, -0.5 68.78, 0 32 M0 32 C-0.28 8.69, 10.74 0.39, 32 0 M0 32 C-0.43 12.24, 12.79 2.07, 32 0" stroke="#e03131" stroke-width="2" fill="none"></path></g><g transform="translate(588.7883905068642 778.2570097630651) rotate(0 105.45454406738281 43.19999999999999)"><text x="105.45454406738281" y="34.762499999999996" font-family="Cascadia, Segoe UI Emoji" font-size="36px" fill="#e03131" text-anchor="middle" style="white-space: pre;" direction="ltr" dominant-baseline="alphabetic">Messaging </text><text x="105.45454406738281" y="77.96249999999999" font-family="Cascadia, Segoe UI Emoji" font-size="36px" fill="#e03131" text-anchor="middle" style="white-space: pre;" direction="ltr" dominant-baseline="alphabetic">Server</text></g><g stroke-linecap="round" transform="translate(163.7722307871386 738.0568340084774) rotate(0 69.4444444444444 13.888888888888914)"><path d="M52.84 0.02 C63.23 -0.85, 76.29 -0.77, 87.26 -0.09 C98.23 0.59, 110.29 2.46, 118.64 4.08 C126.99 5.7, 134.41 7.48, 137.35 9.63 C140.29 11.79, 139.46 14.66, 136.27 17.04 C133.08 19.42, 126.4 22.11, 118.22 23.89 C110.05 25.66, 98.37 27.07, 87.22 27.69 C76.08 28.3, 62.6 28.37, 51.37 27.57 C40.13 26.77, 27.97 24.4, 19.82 22.86 C11.66 21.32, 5.27 20.44, 2.42 18.33 C-0.43 16.23, -0.36 12.77, 2.72 10.22 C5.8 7.68, 12.33 4.89, 20.9 3.08 C29.48 1.27, 47.8 -0.29, 54.18 -0.63 C60.55 -0.98, 58.61 0.63, 59.15 1.01 M71.94 0.65 C82.99 0.44, 94.6 0.66, 104.08 1.78 C113.56 2.9, 123.13 5.44, 128.82 7.39 C134.52 9.34, 138.11 10.95, 138.24 13.48 C138.37 16, 135.66 20.63, 129.63 22.53 C123.6 24.42, 112.31 24.2, 102.06 24.85 C91.81 25.49, 79.65 26.04, 68.13 26.39 C56.62 26.73, 43.13 27.9, 32.99 26.93 C22.84 25.95, 12.67 22.98, 7.25 20.53 C1.83 18.08, -0.11 14.65, 0.48 12.22 C1.07 9.8, 5.01 7.52, 10.78 5.98 C16.55 4.44, 25.17 4.23, 35.1 3.01 C45.03 1.78, 64.44 -0.88, 70.37 -1.39 C76.3 -1.9, 70.82 -0.62, 70.67 -0.05" stroke="#f08c00" stroke-width="2" fill="none"></path></g><g stroke-linecap="round"><g transform="translate(164.0760481279733 753.8952122259661) rotate(0 0 61.11718089575652)"><path d="M0 0 C-2.24 37.03, 0.82 72.48, 0 122.23 M0 0 C-0.78 29.25, -1.48 56.98, 0 122.23" stroke="#f08c00" stroke-width="2" fill="none"></path></g></g><mask></mask><g stroke-linecap="round"><g transform="translate(303.1361925142695 749.9362045566049) rotate(0 -0.9897519173401861 63.09668473043689)"><path d="M0 0 C0.39 30.6, -3.16 61.7, -1.98 126.19 M0 0 C-1.37 34.21, -1.7 68.67, -1.98 126.19" stroke="#f08c00" stroke-width="2" fill="none"></path></g></g><mask></mask><g stroke-linecap="round" transform="translate(164.57092408664323 856.8294116293455) rotate(0 69.28263421381308 18.310410470793613)"><path d="M49.77 0.03 C60 -1.14, 73.66 -0.91, 84.8 -0.07 C95.95 0.76, 108.11 2.8, 116.62 5.03 C125.13 7.27, 132.44 10.37, 135.87 13.32 C139.29 16.27, 139.87 19.95, 137.18 22.74 C134.5 25.52, 127.68 27.7, 119.76 30.04 C111.84 32.38, 100.66 35.75, 89.67 36.78 C78.69 37.8, 65.11 37.18, 53.86 36.18 C42.61 35.18, 30.82 33.02, 22.18 30.78 C13.55 28.53, 5.35 25.39, 2.06 22.72 C-1.24 20.05, -0.51 17.55, 2.4 14.74 C5.3 11.92, 11.19 8.34, 19.49 5.83 C27.8 3.32, 46.21 0.36, 52.24 -0.34 C58.27 -1.03, 55.33 1.31, 55.68 1.64 M64.13 -0.6 C75.34 -0.84, 90.28 2.13, 100.56 3.39 C110.83 4.65, 119.5 4.9, 125.78 6.96 C132.06 9.02, 137.43 12.3, 138.24 15.73 C139.05 19.16, 135.98 24.59, 130.65 27.54 C125.32 30.49, 115.66 32.16, 106.26 33.43 C96.86 34.7, 85.39 35.06, 74.26 35.14 C63.14 35.23, 50.06 34.86, 39.52 33.96 C28.99 33.06, 17.65 32.38, 11.06 29.74 C4.46 27.09, 0.57 21.42, -0.06 18.11 C-0.69 14.8, 2.3 12.28, 7.27 9.87 C12.25 7.47, 20.13 5.46, 29.8 3.66 C39.48 1.87, 59.5 -0.47, 65.32 -0.88 C71.14 -1.29, 64.76 0.73, 64.72 1.21" stroke="#f08c00" stroke-width="2" fill="none"></path></g><g transform="translate(186.76330131134864 803.753533289705) rotate(0 46.69091033935547 12)"><text x="0" y="19.3125" font-family="Cascadia, Segoe UI Emoji" font-size="20px" fill="#f08c00" text-anchor="start" style="white-space: pre;" direction="ltr" dominant-baseline="alphabetic">Database</text></g><g mask="url(#mask-R0Z-PuUxyxDPgtG6VWZyu)" stroke-linecap="round"><g transform="translate(108.5393529481662 209.77665592299854) rotate(0 0.6788324766384903 71.27741004704194)"><path d="M0 0 C1.32 32.81, 0.02 67.57, 1.36 142.55 M0 0 C0.92 43.83, 1.27 86.69, 1.36 142.55" stroke="#1e1e1e" stroke-width="1" fill="none"></path></g><g transform="translate(108.5393529481662 209.77665592299854) rotate(0 0.6788324766384903 71.27741004704194)"><path d="M-7.27 119.09 C-3.87 123.22, -3.41 129.31, 1.36 142.55 M-7.27 119.09 C-4.26 126.62, -1.7 133.21, 1.36 142.55" stroke="#1e1e1e" stroke-width="1" fill="none"></path></g><g transform="translate(108.5393529481662 209.77665592299854) rotate(0 0.6788324766384903 71.27741004704194)"><path d="M9.83 119.03 C9.12 123.17, 5.45 129.27, 1.36 142.55 M9.83 119.03 C7.63 126.63, 4.99 133.24, 1.36 142.55" stroke="#1e1e1e" stroke-width="1" fill="none"></path></g></g><mask id="mask-R0Z-PuUxyxDPgtG6VWZyu"><rect x="0" y="0" fill="#fff" width="209.89701790144318" height="452.3314760170824"></rect><rect x="10" y="257.0540659700405" fill="#000" width="198.43637084960938" height="48" opacity="1"></rect></mask><g transform="translate(10 257.0540659700405) rotate(0 99.21818542480469 24)"><text x="99.21818542480469" y="19.3125" font-family="Cascadia, Segoe UI Emoji" font-size="20px" fill="#1e1e1e" text-anchor="middle" style="white-space: pre;" direction="ltr" dominant-baseline="alphabetic"> 1. Registration </text><text x="99.21818542480469" y="43.3125" font-family="Cascadia, Segoe UI Emoji" font-size="20px" fill="#1e1e1e" text-anchor="middle" style="white-space: pre;" direction="ltr" dominant-baseline="alphabetic">request</text></g><g mask="url(#mask-JnciT3laquKMkLXr_SNVX)" stroke-linecap="round"><g transform="translate(382.93687704391493 552.9864455008465) rotate(0 69.15144903337281 134.78828377468017)"><path d="M-0.65 0.06 C7.27 24.12, 23.42 99.27, 46.65 144.27 C69.88 189.27, 123.39 249.21, 138.73 270.06 M1.2 -0.96 C9.06 22.75, 22.94 97.52, 45.77 142.34 C68.6 187.17, 122.63 246.63, 138.18 267.98" stroke="#1e1e1e" stroke-width="1" fill="none"></path></g><g transform="translate(382.93687704391493 552.9864455008465) rotate(0 69.15144903337281 134.78828377468017)"><path d="M116.82 254.99 C121.68 258.23, 127 261.63, 138.18 267.98 M116.82 254.99 C123.36 259.63, 132.36 264.08, 138.18 267.98" stroke="#1e1e1e" stroke-width="1" fill="none"></path></g><g transform="translate(382.93687704391493 552.9864455008465) rotate(0 69.15144903337281 134.78828377468017)"><path d="M130.16 244.3 C132.02 249.85, 134.35 255.65, 138.18 267.98 M130.16 244.3 C132.19 252.56, 136.65 260.65, 138.18 267.98" stroke="#1e1e1e" stroke-width="1" fill="none"></path></g></g><mask id="mask-JnciT3laquKMkLXr_SNVX"><rect x="0" y="0" fill="#fff" width="621.2397751106605" height="922.5630130502068"></rect><rect x="347.75309996399744" y="684.8800156682078" fill="#000" width="163.41818237304688" height="24" opacity="1"></rect></mask><g transform="translate(347.75309996399744 684.8800156682078) rotate(0 104.22045473711265 2.657391166640622)"><text x="81.70909118652344" y="19.3125" font-family="Cascadia, Segoe UI Emoji" font-size="20px" fill="#1e1e1e" text-anchor="middle" style="white-space: pre;" direction="ltr" dominant-baseline="alphabetic">2. To send OTP</text></g><g mask="url(#mask-o7WtHGRBDFfdnmK0T06Wr)" stroke-linecap="round"><g transform="translate(235.03823817902355 569.9348172813425) rotate(0 -0.5976866542824268 79.4923250195634)"><path d="M0 0 C0.94 49.96, -0.55 97.19, -1.2 158.98 M0 0 C1.16 50.84, -0.16 100.34, -1.2 158.98" stroke="#1e1e1e" stroke-width="1" fill="none"></path></g><g transform="translate(235.03823817902355 569.9348172813425) rotate(0 -0.5976866542824268 79.4923250195634)"><path d="M-9.31 135.34 C-5.91 143.24, -4.5 148.45, -1.2 158.98 M-9.31 135.34 C-6.47 143.04, -4.83 149.43, -1.2 158.98" stroke="#1e1e1e" stroke-width="1" fill="none"></path></g><g transform="translate(235.03823817902355 569.9348172813425) rotate(0 -0.5976866542824268 79.4923250195634)"><path d="M7.79 135.65 C5.88 143.52, 1.97 148.63, -1.2 158.98 M7.79 135.65 C5.18 143.3, 1.37 149.58, -1.2 158.98" stroke="#1e1e1e" stroke-width="1" fill="none"></path></g></g><mask id="mask-o7WtHGRBDFfdnmK0T06Wr"><rect x="0" y="0" fill="#fff" width="336.2336114875884" height="828.9194673204693"></rect><rect x="141.0587308460302" y="601.4271423009059" fill="#000" width="186.76364135742188" height="96" opacity="1"></rect></mask><g transform="translate(141.0587308460302 601.4271423009059) rotate(0 93.60821828792199 48)"><text x="93.38182067871094" y="19.3125" font-family="Cascadia, Segoe UI Emoji" font-size="20px" fill="#1e1e1e" text-anchor="middle" style="white-space: pre;" direction="ltr" dominant-baseline="alphabetic">8. Now After </text><text x="93.38182067871094" y="43.3125" font-family="Cascadia, Segoe UI Emoji" font-size="20px" fill="#1e1e1e" text-anchor="middle" style="white-space: pre;" direction="ltr" dominant-baseline="alphabetic">Verification, </text><text x="93.38182067871094" y="67.3125" font-family="Cascadia, Segoe UI Emoji" font-size="20px" fill="#1e1e1e" text-anchor="middle" style="white-space: pre;" direction="ltr" dominant-baseline="alphabetic">Store user into </text><text x="93.38182067871094" y="91.3125" font-family="Cascadia, Segoe UI Emoji" font-size="20px" fill="#1e1e1e" text-anchor="middle" style="white-space: pre;" direction="ltr" dominant-baseline="alphabetic">database</text></g><g mask="url(#mask-47N-MzZTzCjl3CXdx6y2g)" stroke-linecap="round"><g transform="translate(328.5801848711071 210.73665197050013) rotate(0 -0.7292633552021925 69.33811410172416)"><path d="M0 0 C-0.32 47.57, -0.74 91.41, -1.46 138.68 M0 0 C-2.66 44.83, -1.64 89.3, -1.46 138.68" stroke="#1e1e1e" stroke-width="1" fill="none"></path></g><g transform="translate(328.5801848711071 210.73665197050013) rotate(0 -0.7292633552021925 69.33811410172416)"><path d="M-10.15 115.24 C-6.96 124.93, -4.03 130.81, -1.46 138.68 M-10.15 115.24 C-8.52 123.41, -4.26 131.12, -1.46 138.68" stroke="#1e1e1e" stroke-width="1" fill="none"></path></g><g transform="translate(328.5801848711071 210.73665197050013) rotate(0 -0.7292633552021925 69.33811410172416)"><path d="M6.95 115.13 C4.51 124.73, 1.8 130.64, -1.46 138.68 M6.95 115.13 C3.12 123.17, 1.93 130.92, -1.46 138.68" stroke="#1e1e1e" stroke-width="1" fill="none"></path></g></g><mask id="mask-47N-MzZTzCjl3CXdx6y2g"><rect x="0" y="0" fill="#fff" width="430.0387115815115" height="449.41288017394845"></rect><rect x="234.469100837194" y="256.0747660722243" fill="#000" width="186.76364135742188" height="48" opacity="1"></rect></mask><g transform="translate(234.469100837194 256.0747660722243) rotate(0 93.21012214403115 24)"><text x="93.38182067871094" y="19.3125" font-family="Cascadia, Segoe UI Emoji" font-size="20px" fill="#1e1e1e" text-anchor="middle" style="white-space: pre;" direction="ltr" dominant-baseline="alphabetic">6. OTP entered, </text><text x="93.38182067871094" y="43.3125" font-family="Cascadia, Segoe UI Emoji" font-size="20px" fill="#1e1e1e" text-anchor="middle" style="white-space: pre;" direction="ltr" dominant-baseline="alphabetic">Verify me</text></g><g stroke-linecap="round" transform="translate(962.0649808338128 622.5178350756078) rotate(0 206.42857142857144 44.28571428571445)"><path d="M22.14 0 C168.03 -1.2, 312.27 -1.22, 390.71 0 M22.14 0 C155.24 -1.91, 287.75 -1.91, 390.71 0 M390.71 0 C407.29 0.86, 411.44 7.12, 412.86 22.14 M390.71 0 C403.45 0.38, 411.88 6.4, 412.86 22.14 M412.86 22.14 C411.72 37, 411.45 51.33, 412.86 66.43 M412.86 22.14 C412.73 37.79, 413.02 54.83, 412.86 66.43 M412.86 66.43 C412.05 82.87, 405.2 86.71, 390.71 88.57 M412.86 66.43 C413.04 80.68, 403.93 89.46, 390.71 88.57 M390.71 88.57 C267.37 88.25, 142.81 88.19, 22.14 88.57 M390.71 88.57 C316.54 89.43, 243.17 89.57, 22.14 88.57 M22.14 88.57 C6.88 90.24, 1.21 79.79, 0 66.43 M22.14 88.57 C7.4 88.85, -0.05 79.75, 0 66.43 M0 66.43 C2.18 53.17, -0.42 36.62, 0 22.14 M0 66.43 C-1.14 48.84, -0.54 32.11, 0 22.14 M0 22.14 C0.8 5.89, 5.96 0.2, 22.14 0 M0 22.14 C-0.55 8.79, 9.21 -0.05, 22.14 0" stroke="#6741d9" stroke-width="1" fill="none"></path></g><g stroke-linecap="round" transform="translate(982.0649808338128 635.3749779327509) rotate(0 29.28571428571422 30.71428571428578)"><path d="M14.64 0 C21.61 -1.59, 33.62 1.39, 43.93 0 M14.64 0 C25 0.01, 38.07 0.42, 43.93 0 M43.93 0 C52.27 -0.26, 56.81 5.21, 58.57 14.64 M43.93 0 C52.71 -0.98, 59.51 7.18, 58.57 14.64 M58.57 14.64 C56.47 20.87, 59.82 27.14, 58.57 46.79 M58.57 14.64 C59.27 23.54, 58.27 34.3, 58.57 46.79 M58.57 46.79 C58.29 54.69, 53.85 60.98, 43.93 61.43 M58.57 46.79 C57.02 57.44, 54.53 60.02, 43.93 61.43 M43.93 61.43 C35.6 61.13, 24.92 61.48, 14.64 61.43 M43.93 61.43 C35.5 62.53, 24.98 62.46, 14.64 61.43 M14.64 61.43 C6.09 60.02, 0.02 56.79, 0 46.79 M14.64 61.43 C4.83 59.99, 0.67 55.61, 0 46.79 M0 46.79 C-0.92 37.16, 1.55 29.88, 0 14.64 M0 46.79 C-0.01 40.02, 0.69 31.43, 0 14.64 M0 14.64 C-1.43 5.08, 4.4 1.23, 14.64 0 M0 14.64 C1.83 4.83, 5.43 0.57, 14.64 0" stroke="#6741d9" stroke-width="1" fill="none"></path></g><g transform="translate(1003.1234221321613 649.2892636470367) rotate(0 8.227272987365723 16.80000000000001)"><text x="8.227272987365723" y="27.0375" font-family="Cascadia, Segoe UI Emoji" font-size="28px" fill="#1e1e1e" text-anchor="middle" style="white-space: pre;" direction="ltr" dominant-baseline="alphabetic">Q</text></g><g stroke-linecap="round" transform="translate(1057.0649808338128 634.6606922184656) rotate(0 29.28571428571422 30.71428571428578)"><path d="M14.64 0 C22.4 -0.12, 26.84 -1.96, 43.93 0 M14.64 0 C22.78 -0.26, 31.46 0.04, 43.93 0 M43.93 0 C52.84 -0.85, 59.39 6.88, 58.57 14.64 M43.93 0 C51.97 -1.81, 58.3 2.75, 58.57 14.64 M58.57 14.64 C58.67 23.28, 56.89 31.87, 58.57 46.79 M58.57 14.64 C58.3 21.71, 58.52 30.4, 58.57 46.79 M58.57 46.79 C57.23 57.32, 54.42 60.2, 43.93 61.43 M58.57 46.79 C58.36 57.78, 53.49 61.63, 43.93 61.43 M43.93 61.43 C35.93 61.07, 28.54 63.29, 14.64 61.43 M43.93 61.43 C33.12 60.97, 21.11 61.79, 14.64 61.43 M14.64 61.43 C4.83 60.18, 0.59 55.74, 0 46.79 M14.64 61.43 C4.41 63.72, 1.53 55.86, 0 46.79 M0 46.79 C-1.76 36.37, -0.62 28.95, 0 14.64 M0 46.79 C-0.84 35.53, -0.37 24.68, 0 14.64 M0 14.64 C1.59 4.84, 5.36 0.49, 14.64 0 M0 14.64 C-2.1 6.17, 6.61 0.85, 14.64 0" stroke="#6741d9" stroke-width="1" fill="none"></path></g><g transform="translate(1078.1234221321613 648.5749779327514) rotate(0 8.227272987365723 16.80000000000001)"><text x="8.227272987365723" y="27.0375" font-family="Cascadia, Segoe UI Emoji" font-size="28px" fill="#1e1e1e" text-anchor="middle" style="white-space: pre;" direction="ltr" dominant-baseline="alphabetic">U</text></g><g stroke-linecap="round" transform="translate(1132.7792665480986 634.6606922184656) rotate(0 29.28571428571422 30.71428571428578)"><path d="M14.64 0 C23.53 2.08, 33.19 -1.16, 43.93 0 M14.64 0 C22.62 -0.47, 31.86 0.95, 43.93 0 M43.93 0 C52.2 -1.58, 58.33 3.03, 58.57 14.64 M43.93 0 C52.52 1.72, 56.28 4.71, 58.57 14.64 M58.57 14.64 C57.24 24.48, 59.94 35.66, 58.57 46.79 M58.57 14.64 C57.92 21.69, 58.96 27.34, 58.57 46.79 M58.57 46.79 C58.38 57.62, 53.51 61.61, 43.93 61.43 M58.57 46.79 C58.25 54.27, 53.78 61.87, 43.93 61.43 M43.93 61.43 C37.48 61.2, 29.11 62.91, 14.64 61.43 M43.93 61.43 C37.18 60.84, 30.76 61.06, 14.64 61.43 M14.64 61.43 C4.48 63.42, 1.33 55.95, 0 46.79 M14.64 61.43 C4.15 63.58, 1.24 54.87, 0 46.79 M0 46.79 C1.12 40.82, -1.44 31.84, 0 14.64 M0 46.79 C0.87 36.8, 0.32 27.1, 0 14.64 M0 14.64 C-1.83 6, 6.39 0.74, 14.64 0 M0 14.64 C-1.44 4.05, 2.74 0.2, 14.64 0" stroke="#6741d9" stroke-width="1" fill="none"></path></g><g transform="translate(1153.837707846447 648.5749779327514) rotate(0 8.227272987365723 16.80000000000001)"><text x="8.227272987365723" y="27.0375" font-family="Cascadia, Segoe UI Emoji" font-size="28px" fill="#1e1e1e" text-anchor="middle" style="white-space: pre;" direction="ltr" dominant-baseline="alphabetic">E</text></g><g stroke-linecap="round" transform="translate(1212.7792665480986 636.0892636470362) rotate(0 29.28571428571422 30.71428571428578)"><path d="M14.64 0 C25.82 -1.55, 37.86 -0.64, 43.93 0 M14.64 0 C21.44 -1.08, 29.6 -1.22, 43.93 0 M43.93 0 C52.68 1.5, 56.58 4.73, 58.57 14.64 M43.93 0 C54.41 -2.21, 59.95 3.7, 58.57 14.64 M58.57 14.64 C56.98 23.14, 58.39 29.98, 58.57 46.79 M58.57 14.64 C58.6 26.07, 58.6 36.51, 58.57 46.79 M58.57 46.79 C58.29 54.57, 53.77 61.81, 43.93 61.43 M58.57 46.79 C58.15 58.12, 55.82 63.49, 43.93 61.43 M43.93 61.43 C34.47 61.62, 28.06 61.56, 14.64 61.43 M43.93 61.43 C36.78 62.31, 30.69 61.01, 14.64 61.43 M14.64 61.43 C4.24 63.3, 1.08 55.09, 0 46.79 M14.64 61.43 C2.82 61.06, -0.69 57.78, 0 46.79 M0 46.79 C0.44 35.38, 1.47 26.53, 0 14.64 M0 46.79 C-0.99 37.78, 0.68 28.01, 0 14.64 M0 14.64 C-1.25 4.16, 3.02 0.17, 14.64 0 M0 14.64 C0.54 3.47, 6.76 0.92, 14.64 0" stroke="#6741d9" stroke-width="1" fill="none"></path></g><g transform="translate(1233.837707846447 650.003549361322) rotate(0 8.227272987365723 16.80000000000001)"><text x="8.227272987365723" y="27.0375" font-family="Cascadia, Segoe UI Emoji" font-size="28px" fill="#1e1e1e" text-anchor="middle" style="white-space: pre;" direction="ltr" dominant-baseline="alphabetic">U</text></g><g stroke-linecap="round" transform="translate(1291.350695119527 637.5178350756078) rotate(0 29.28571428571422 30.71428571428578)"><path d="M14.64 0 C20 0.94, 29.06 -1.37, 43.93 0 M14.64 0 C20.61 1.02, 26.6 0.2, 43.93 0 M43.93 0 C54.32 -1.92, 59.77 3.85, 58.57 14.64 M43.93 0 C52.76 1.93, 58.25 2.74, 58.57 14.64 M58.57 14.64 C59.27 25.27, 57.28 34.25, 58.57 46.79 M58.57 14.64 C58.4 25.02, 58.58 37.57, 58.57 46.79 M58.57 46.79 C58.2 57.92, 55.54 63.23, 43.93 61.43 M58.57 46.79 C58 58.47, 55.08 59.81, 43.93 61.43 M43.93 61.43 C33.86 62.01, 25.49 61.02, 14.64 61.43 M43.93 61.43 C31.9 62.28, 21.05 60.61, 14.64 61.43 M14.64 61.43 C3.09 61.11, -0.6 57.62, 0 46.79 M14.64 61.43 C5.8 59.71, -1.64 56.78, 0 46.79 M0 46.79 C-0.24 38.4, 0.3 27.21, 0 14.64 M0 46.79 C-0.87 34.98, -1.17 23.98, 0 14.64 M0 14.64 C0.47 3.66, 6.52 0.8, 14.64 0 M0 14.64 C1.39 3.44, 6.01 -1.86, 14.64 0" stroke="#6741d9" stroke-width="1" fill="none"></path></g><g transform="translate(1312.4091364178755 651.4321207898936) rotate(0 8.227272987365723 16.80000000000001)"><text x="8.227272987365723" y="27.0375" font-family="Cascadia, Segoe UI Emoji" font-size="28px" fill="#1e1e1e" text-anchor="middle" style="white-space: pre;" direction="ltr" dominant-baseline="alphabetic">E</text></g><g stroke-linecap="round" transform="translate(1050.5333143274652 358.5560211026341) rotate(0 36.4285714285715 40)"><path d="M35.01 -0.93 C41.9 -1.77, 50.25 2.13, 55.98 6.61 C61.71 11.1, 66.85 18.83, 69.39 26 C71.92 33.18, 72.67 42.21, 71.17 49.67 C69.67 57.14, 65.98 65.71, 60.39 70.77 C54.81 75.82, 44.96 79.63, 37.66 80.01 C30.36 80.38, 22.38 77.2, 16.58 73.03 C10.79 68.85, 5.57 62.16, 2.9 54.96 C0.23 47.76, -1.26 37.49, 0.56 29.83 C2.39 22.17, 7.94 14, 13.84 9 C19.74 4.01, 32.19 1.22, 35.95 -0.13 C39.72 -1.49, 36.43 0.2, 36.45 0.85 M48.28 3.57 C54.75 5.16, 63.3 10.06, 67.4 16.35 C71.49 22.64, 73.21 33.45, 72.86 41.3 C72.5 49.16, 69.54 57.39, 65.25 63.47 C60.97 69.55, 54.04 75.15, 47.15 77.77 C40.26 80.38, 30.53 81.78, 23.9 79.18 C17.27 76.57, 11.42 68.63, 7.36 62.14 C3.3 55.66, -0.63 48.22, -0.46 40.28 C-0.29 32.34, 4.17 20.98, 8.38 14.5 C12.59 8.01, 18.17 3.28, 24.8 1.38 C31.44 -0.51, 44.17 3.03, 48.21 3.12 C52.24 3.22, 49.31 1.43, 49.01 1.95" stroke="#099268" stroke-width="1" fill="none"></path></g><g transform="translate(1075.530268285116 386.7717498551722) rotate(0 11.672727584838924 12)"><text x="11.672727584838867" y="19.3125" font-family="Cascadia, Segoe UI Emoji" font-size="20px" fill="#099268" text-anchor="middle" style="white-space: pre;" direction="ltr" dominant-baseline="alphabetic">W1</text></g><g stroke-linecap="round" transform="translate(1220.5179554577041 333.6242965471438) rotate(0 36.428571428571445 40)"><path d="M18.05 5.47 C23.7 1.32, 33.25 -0.96, 40.63 -0.07 C48 0.82, 57.2 5.34, 62.31 10.81 C67.42 16.28, 70.18 25.13, 71.31 32.74 C72.44 40.36, 71.95 49.38, 69.1 56.5 C66.26 63.63, 60.57 71.65, 54.24 75.49 C47.9 79.34, 38.16 80.66, 31.11 79.57 C24.05 78.48, 16.99 74.36, 11.92 68.96 C6.86 63.57, 2.27 54.88, 0.71 47.2 C-0.86 39.52, -1.4 30.37, 2.54 22.86 C6.48 15.36, 19.69 5.57, 24.33 2.16 C28.97 -1.25, 30.06 1.81, 30.38 2.43 M51.2 3.61 C57.44 6.15, 64.26 12.35, 67.91 19 C71.56 25.64, 73.88 35.3, 73.1 43.5 C72.33 51.7, 67.92 62.35, 63.24 68.21 C58.57 74.07, 52.07 77.03, 45.06 78.66 C38.06 80.29, 27.75 81.26, 21.2 77.97 C14.64 74.69, 9.45 66.03, 5.72 58.97 C2 51.92, -1.68 43.13, -1.15 35.65 C-0.63 28.17, 3.77 20.07, 8.86 14.09 C13.95 8.11, 22.51 1.52, 29.39 -0.23 C36.26 -1.98, 46.59 2.69, 50.11 3.58 C53.64 4.46, 50.4 4.5, 50.53 5.08" stroke="#e64980" stroke-width="1" fill="none"></path></g><g transform="translate(1245.5149094153553 361.8400252996819) rotate(0 11.672727584838867 12)"><text x="11.672727584838867" y="19.3125" font-family="Cascadia, Segoe UI Emoji" font-size="20px" fill="#e64980" text-anchor="middle" style="white-space: pre;" direction="ltr" dominant-baseline="alphabetic">W2</text></g><g mask="url(#mask-rBPm0WBsyr_3PqcrwJDMN)" stroke-linecap="round"><g transform="translate(686.2126192699628 708.9486245893968) rotate(0 135.37203013780817 -27.150514920723253)"><path d="M0.38 -1.15 C8.61 -9.64, 3.21 -42.31, 48.19 -51 C93.17 -59.69, 233.19 -52.56, 270.26 -53.3 M-0.89 0.86 C7.35 -7.47, 2.6 -40.45, 47.62 -49.78 C92.64 -59.11, 232.05 -54.26, 269.24 -55.11" stroke="#1e1e1e" stroke-width="1" fill="none"></path></g><g transform="translate(686.2126192699628 708.9486245893968) rotate(0 135.37203013780817 -27.150514920723253)"><path d="M245.71 -46.66 C248.51 -47.22, 254.11 -50.93, 269.24 -55.11 M245.71 -46.66 C254.83 -49.91, 263.11 -52.54, 269.24 -55.11" stroke="#1e1e1e" stroke-width="1" fill="none"></path></g><g transform="translate(686.2126192699628 708.9486245893968) rotate(0 135.37203013780817 -27.150514920723253)"><path d="M245.78 -63.76 C248.55 -60.9, 254.14 -61.18, 269.24 -55.11 M245.78 -63.76 C254.85 -60.45, 263.1 -56.51, 269.24 -55.11" stroke="#1e1e1e" stroke-width="1" fill="none"></path></g></g><mask id="mask-rBPm0WBsyr_3PqcrwJDMN"><rect x="0" y="0" fill="#fff" width="1056.9566795455792" height="863.2496544308433"></rect><rect x="692.8239967396984" y="646.5677560064541" fill="#000" width="81.70909118652344" height="24" opacity="1"></rect></mask><g transform="translate(692.8239967396984 646.5677560064541) rotate(0 128.0744543869577 34.99707956789524)"><text x="40.85454559326172" y="19.3125" font-family="Cascadia, Segoe UI Emoji" font-size="20px" fill="#1e1e1e" text-anchor="middle" style="white-space: pre;" direction="ltr" dominant-baseline="alphabetic">3.LPUSH</text></g><g mask="url(#mask-zxfQ0Gn3ukTWOJJ8i_HEJ)" stroke-linecap="round"><g transform="translate(1204.9437924859865 643.2405457403402) rotate(0 -57.38564655470532 -96.7521496635195)"><path d="M-0.49 1.01 C-17.44 -20.64, -81.98 -98.04, -101.01 -130.5 C-120.04 -162.96, -112.25 -183.35, -114.68 -193.77 M1.46 0.49 C-15.73 -21, -82.57 -97.37, -102.05 -129.55 C-121.52 -161.73, -113.11 -182.24, -115.39 -192.59" stroke="#099268" stroke-width="1" fill="none"></path></g><g transform="translate(1204.9437924859865 643.2405457403402) rotate(0 -57.38564655470532 -96.7521496635195)"><path d="M-106.44 -169.25 C-107.87 -177.97, -114.63 -185.94, -115.39 -192.59 M-106.44 -169.25 C-108.4 -176.31, -111.35 -181.65, -115.39 -192.59" stroke="#099268" stroke-width="1" fill="none"></path></g><g transform="translate(1204.9437924859865 643.2405457403402) rotate(0 -57.38564655470532 -96.7521496635195)"><path d="M-123.54 -168.96 C-118.81 -177.71, -119.41 -185.79, -115.39 -192.59 M-123.54 -168.96 C-120.75 -176.17, -118.95 -181.58, -115.39 -192.59" stroke="#099268" stroke-width="1" fill="none"></path></g></g><mask id="mask-zxfQ0Gn3ukTWOJJ8i_HEJ"><rect x="0" y="0" fill="#fff" width="1419.7150855953969" height="936.7448450673792"></rect><rect x="1069.0826056134133" y="501.85585220916346" fill="#000" width="70.03636169433594" height="24" opacity="1"></rect></mask><g transform="translate(1069.0826056134129 501.85585220916346) rotate(0 78.89428135729702 45.00157522952023)"><text x="35.01818084716797" y="19.3125" font-family="Cascadia, Segoe UI Emoji" font-size="20px" fill="#1e1e1e" text-anchor="middle" style="white-space: pre;" direction="ltr" dominant-baseline="alphabetic">4.RPOP</text></g><g mask="url(#mask-q4DR_rQGuMuBmu6l6xSoX)" stroke-linecap="round"><g transform="translate(1329.080796083718 626.8035493613215) rotate(0 -39.9960160563744 -100.82475046457193)"><path d="M0.09 -0.27 C-11.44 -20, -56.12 -85.81, -69.39 -119.5 C-82.67 -153.19, -77.77 -188.8, -79.55 -202.38 M-1.32 -1.45 C-12.46 -21.45, -53.98 -88.05, -67.11 -121.38 C-80.24 -154.71, -77.96 -187.81, -80.09 -201.45" stroke="#e64980" stroke-width="1" fill="none"></path></g><g transform="translate(1329.080796083718 626.8035493613215) rotate(0 -39.9960160563744 -100.82475046457193)"><path d="M-69.82 -178.66 C-72.99 -186.52, -74.71 -190.96, -80.09 -201.45 M-69.82 -178.66 C-72.34 -183.96, -74.84 -190.48, -80.09 -201.45" stroke="#e64980" stroke-width="1" fill="none"></path></g><g transform="translate(1329.080796083718 626.8035493613215) rotate(0 -39.9960160563744 -100.82475046457193)"><path d="M-86.88 -177.39 C-85.16 -185.62, -82 -190.43, -80.09 -201.45 M-86.88 -177.39 C-85.32 -183.08, -83.75 -189.91, -80.09 -201.45" stroke="#e64980" stroke-width="1" fill="none"></path></g></g><mask id="mask-q4DR_rQGuMuBmu6l6xSoX"><rect x="0" y="0" fill="#fff" width="1509.0728281964666" height="928.4530502904654"></rect><rect x="1225.4750619736838" y="494.8376631133765" fill="#000" width="70.03636169433594" height="24" opacity="1"></rect></mask><g transform="translate(1225.4750619736833 494.8376631133765) rotate(0 63.607654593245 30.63998064945517)"><text x="35.01818084716797" y="19.3125" font-family="Cascadia, Segoe UI Emoji" font-size="20px" fill="#1e1e1e" text-anchor="middle" style="white-space: pre;" direction="ltr" dominant-baseline="alphabetic">4.RPOP</text></g><g mask="url(#mask-xCbi2P1y2vQBWQA8q-LKu)" stroke-linecap="round"><g transform="translate(1075.9870071578353 350.3968700426558) rotate(0 -339.7256609838662 -124.48598558952904)"><path d="M0.44 -0.73 C-43.64 -36.01, -151.95 -169.83, -265.28 -211.18 C-378.61 -252.54, -610.5 -242.37, -679.56 -248.86 M-0.79 1.49 C-44.97 -34.17, -153.02 -171.47, -266.28 -212.97 C-379.55 -254.47, -611.52 -241.37, -680.38 -247.49" stroke="#1e1e1e" stroke-width="1" fill="none"></path></g><g transform="translate(1075.9870071578353 350.3968700426558) rotate(0 -339.7256609838662 -124.48598558952904)"><path d="M-656.69 -255.49 C-663.4 -253.73, -666.61 -251.85, -680.38 -247.49 M-656.69 -255.49 C-663.98 -253.06, -671.52 -250.1, -680.38 -247.49" stroke="#1e1e1e" stroke-width="1" fill="none"></path></g><g transform="translate(1075.9870071578353 350.3968700426558) rotate(0 -339.7256609838662 -124.48598558952904)"><path d="M-657.09 -238.39 C-663.77 -240.61, -666.89 -242.72, -680.38 -247.49 M-657.09 -238.39 C-664.24 -241.24, -671.65 -243.56, -680.38 -247.49" stroke="#1e1e1e" stroke-width="1" fill="none"></path></g></g><mask id="mask-xCbi2P1y2vQBWQA8q-LKu"><rect x="0" y="0" fill="#fff" width="1855.4383291255676" height="699.3688412217139"></rect><rect x="705.7668569343132" y="126.56775600645506" fill="#000" width="210.1090850830078" height="24" opacity="1"></rect></mask><g transform="translate(705.7668569343132 126.56775600645506) rotate(0 30.24976245029501 100.14368400240834)"><text x="105.0545425415039" y="19.3125" font-family="Cascadia, Segoe UI Emoji" font-size="20px" fill="#1e1e1e" text-anchor="middle" style="white-space: pre;" direction="ltr" dominant-baseline="alphabetic">5.Email the client</text></g><g stroke-linecap="round"><g transform="translate(1224.2964104140185 341.0161363811576) rotate(0 -186.45839593929423 -91.84903161850411)"><path d="M-0.11 0.11 C-38.06 -22.56, -165.73 -104.76, -227.86 -135.35 C-289.99 -165.95, -348.66 -175.55, -372.87 -183.47 M-1.62 -0.88 C-39.74 -23.5, -166.9 -104.25, -228.9 -134.44 C-290.89 -164.63, -349.59 -173.6, -373.61 -182.03" stroke="#1e1e1e" stroke-width="1" fill="none"></path></g></g><mask></mask><g stroke-linecap="round" transform="translate(667.9435426826806 500.82726860701223) rotate(0 110.11618606980454 46.33304004030015)"><path d="M112.95 0.93 C127.28 0.33, 144.22 1.52, 157.76 4.13 C171.3 6.75, 184.7 11.82, 194.21 16.61 C203.71 21.41, 210.57 26.98, 214.79 32.89 C219 38.79, 221.34 45.77, 219.5 52.05 C217.67 58.33, 211.56 65.22, 203.76 70.57 C195.96 75.92, 184.66 80.49, 172.68 84.14 C160.71 87.79, 146.54 91.33, 131.9 92.5 C117.26 93.66, 99.37 92.58, 84.82 91.14 C70.27 89.69, 56.57 87.7, 44.6 83.82 C32.62 79.93, 20.36 73.46, 12.97 67.81 C5.57 62.17, 1.3 56.02, 0.24 49.98 C-0.82 43.93, 1.82 37.56, 6.61 31.56 C11.4 25.55, 18.86 18.64, 28.99 13.95 C39.12 9.26, 53.03 5.59, 67.4 3.41 C81.78 1.22, 107.01 1.19, 115.25 0.84 C123.48 0.48, 116.97 0.77, 116.84 1.26 M139.68 1.27 C153.36 2.18, 167.99 7.03, 179.62 11.01 C191.26 15, 202.55 19.44, 209.51 25.17 C216.47 30.89, 220.81 39.11, 221.4 45.38 C221.99 51.66, 218.75 57.3, 213.06 62.82 C207.36 68.34, 197.94 74.1, 187.23 78.5 C176.52 82.9, 162.84 86.83, 148.79 89.24 C134.75 91.64, 118.17 93.43, 102.94 92.92 C87.7 92.41, 70.71 89.11, 57.4 86.15 C44.09 83.19, 31.95 79.86, 23.06 75.16 C14.16 70.46, 7.61 64.18, 4.02 57.95 C0.42 51.72, -1.11 44.11, 1.49 37.79 C4.1 31.46, 11.15 25.09, 19.63 20 C28.12 14.9, 40.09 10.68, 52.39 7.2 C64.7 3.73, 79 -0.17, 93.47 -0.86 C107.94 -1.55, 131.41 2.63, 139.22 3.07 C147.03 3.5, 140.44 1.2, 140.34 1.74" stroke="#e03131" stroke-width="1" fill="none"></path></g><g transform="translate(749.0140088557039 535.3979018418283) rotate(0 29.18181800842285 12)"><text x="29.18181800842285" y="19.3125" font-family="Cascadia, Segoe UI Emoji" font-size="20px" fill="#e03131" text-anchor="middle" style="white-space: pre;" direction="ltr" dominant-baseline="alphabetic">Redis</text></g><g mask="url(#mask-gdS--vKJDCl1SQPIE7h_t)" stroke-linecap="round"><g transform="translate(1044.831693229742 426.59209648194155) rotate(0 -101.86214643598134 33.515275443451856)"><path d="M-0.22 0.82 C-13.35 1.68, -44.78 -5.8, -78.74 5.4 C-112.71 16.6, -183.31 57.9, -204.02 68.03 M-1.8 0.21 C-14.99 0.74, -45.25 -7.16, -79.11 3.84 C-112.97 14.84, -184.4 55.71, -204.95 66.21" stroke="#1e1e1e" stroke-width="1" fill="none"></path></g><g transform="translate(1044.831693229742 426.59209648194155) rotate(0 -101.86214643598134 33.515275443451856)"><path d="M-188.3 47.57 C-191.95 55.05, -196.58 58.37, -204.95 66.21 M-188.3 47.57 C-194.56 54.72, -200.97 61.12, -204.95 66.21" stroke="#1e1e1e" stroke-width="1" fill="none"></path></g><g transform="translate(1044.831693229742 426.59209648194155) rotate(0 -101.86214643598134 33.515275443451856)"><path d="M-180.21 62.63 C-186.35 65.52, -193.44 64.26, -204.95 66.21 M-180.21 62.63 C-189.66 63.95, -199.18 64.58, -204.95 66.21" stroke="#1e1e1e" stroke-width="1" fill="none"></path></g></g><mask id="mask-gdS--vKJDCl1SQPIE7h_t"><rect x="0" y="0" fill="#fff" width="1348.5559861017048" height="593.6226473688453"></rect><rect x="924.1257205817471" y="418.9112529605318" fill="#000" width="81.70909118652344" height="24" opacity="1"></rect></mask><g transform="translate(924.1257205817473 418.9112529605318) rotate(0 18.121262613941383 40.67409476818929)"><text x="40.85454559326172" y="19.3125" font-family="Cascadia, Segoe UI Emoji" font-size="20px" fill="#1e1e1e" text-anchor="middle" style="white-space: pre;" direction="ltr" dominant-baseline="alphabetic">5. HSET</text></g><g mask="url(#mask-cTBXYBCRu-9Q8bFNcNmoU)" stroke-linecap="round"><g transform="translate(396.94922983678225 463.4045537680149) rotate(0 145.89019192707826 20.233767465153505)"><path d="M-0.3 1 C19.89 2.29, 73.59 2.18, 122.27 8.78 C170.96 15.39, 263.54 35.46, 291.79 40.61 M1.74 0.48 C21.75 2.41, 73.49 2.96, 121.71 9.88 C169.92 16.8, 262.65 36.91, 291.03 42" stroke="#1e1e1e" stroke-width="1" fill="none"></path></g><g transform="translate(396.94922983678225 463.4045537680149) rotate(0 145.89019192707826 20.233767465153505)"><path d="M266.33 45.85 C277.66 45.61, 284.28 42.91, 291.03 42 M266.33 45.85 C274.33 44.4, 281.54 44.6, 291.03 42" stroke="#1e1e1e" stroke-width="1" fill="none"></path></g><g transform="translate(396.94922983678225 463.4045537680149) rotate(0 145.89019192707826 20.233767465153505)"><path d="M269.63 29.07 C279.82 35.41, 285.14 39.29, 291.03 42 M269.63 29.07 C276.6 32.84, 282.78 38.27, 291.03 42" stroke="#1e1e1e" stroke-width="1" fill="none"></path></g></g><mask id="mask-cTBXYBCRu-9Q8bFNcNmoU"><rect x="0" y="0" fill="#fff" width="788.7296136909388" height="603.8720886983219"></rect><rect x="413.44370142697517" y="461.0321984517136" fill="#000" width="210.1090850830078" height="24" opacity="1"></rect></mask><g transform="translate(413.44370142697517 461.0321984517136) rotate(0 129.2512727855902 23.61474765780126)"><text x="105.0545425415039" y="19.3125" font-family="Cascadia, Segoe UI Emoji" font-size="20px" fill="#1e1e1e" text-anchor="middle" style="white-space: pre;" direction="ltr" dominant-baseline="alphabetic">7. HGETALL &amp;&amp; HDEL</text></g></svg>